<?xml version="1.0" encoding="utf-8"?>
<!-- Generator: Adobe Illustrator 24.1.3, SVG Export Plug-In . SVG Version: 6.00 Build 0)  -->
<svg version="1.1" xmlns="http://www.w3.org/2000/svg" xmlns:xlink="http://www.w3.org/1999/xlink" x="0px" y="0px"
	 viewBox="0 0 69.9 63.53" style="enable-background:new 0 0 69.9 63.53;" xml:space="preserve">
<style type="text/css">
	.st0{fill:#FFFFFF;stroke:#000000;stroke-width:0.9612;stroke-miterlimit:10;}
	.st1{clip-path:url(#SVGID_2_);}
	.st2{fill:none;}
	.st3{fill:#EA2B2F;}
	.st4{opacity:0.15;}
	.st5{fill:#A8A394;}
	.st6{opacity:0.6;}
	.st7{clip-path:url(#SVGID_4_);}
	.st8{stroke:#000000;stroke-miterlimit:10;}
	.st9{fill:#FFFFFF;}
	.st10{fill:#FFFFFF;stroke:#000000;stroke-miterlimit:10;}
	.st11{fill:none;stroke:#EA2B2F;stroke-miterlimit:10;}
	.st12{fill:#CCCCCB;}
	.st13{opacity:0.45;clip-path:url(#SVGID_6_);}
	.st14{fill:#020202;}
	.st15{clip-path:url(#SVGID_8_);}
	.st16{clip-path:url(#SVGID_10_);}
	.st17{clip-path:url(#SVGID_12_);}
	.st18{fill:#EA212B;}
</style>
<g id="Grid_Template">
</g>
<g id="COPYRIGHT__x40_CASGRAPHIC">
	<g id="BOOTSTRAP__Grid_options">
	</g>
</g>
<g id="Layer_4">
	<g>
		<path class="st2" d="M33.27,47.35c-0.18-0.16-0.46-0.15-0.62,0.03c-0.16,0.18-0.15,0.46,0.03,0.62c0.18,0.16,0.46,0.15,0.62-0.03
			C33.46,47.79,33.45,47.51,33.27,47.35z"/>
		<path class="st2" d="M28.83,43.17c-0.21,0.12-0.28,0.39-0.16,0.6c0.12,0.21,0.39,0.28,0.6,0.16c0.21-0.12,0.28-0.39,0.16-0.6
			S29.04,43.05,28.83,43.17z"/>
		<path class="st2" d="M22.32,20.14c0.01-0.02,0.45-0.85,1.41-0.75c0.14,0.02,0.25,0.08,0.33,0.18c0.25,0.32,0.16,0.98,0.08,1.56
			l-0.03,0.26c-0.01,0.08-0.6,8.41,2.47,15.87c2.72,6.52,6.73,9.61,7.89,10.4l0.01,0.01l0.01,0.01c0.07,0.07,0.14,0.15,0.2,0.25
			c-0.05,0.05-0.1,0.11-0.15,0.16c-0.1-0.14-0.18-0.23-0.2-0.25c-1.19-0.81-5.22-3.93-7.96-10.49c-0.85-2.06-1.42-4.19-1.8-6.2
			c-1.01-5.3-0.69-9.73-0.68-9.78l0.03-0.27c0.05-0.39,0.11-0.85,0.06-1.16c-0.02-0.1-0.05-0.18-0.1-0.24
			c-0.05-0.06-0.11-0.09-0.19-0.1c-0.4-0.04-0.69,0.11-0.88,0.27c-0.09,0.43-1.14,5.45,0.03,11.58c0.14,0.73,0.31,1.47,0.52,2.23
			c1.86,6.8,5.26,11.93,10.11,15.23c0.09,0.02,0.15,0.02,0.23,0.04c-0.28,0.27-0.57,0.55-0.87,0.8c-0.05-0.03-0.08-0.05-0.09-0.05
			c-0.06-0.04-6.64-4.11-9.56-14.24C20.28,25.32,22.3,20.19,22.32,20.14z"/>
		<path class="st2" d="M42.38,54.33c1.61,0.18,3.99,0.29,6.49-0.18c2.33-0.44,4.51-1.46,5.92-2.23c0.66-0.36,1.18-0.68,1.48-0.87
			l-2.21-3.47c-0.28,0.21-0.72,0.51-1.32,0.84c-1.35,0.74-2.88,1.27-4.55,1.58c-1.11,0.21-2.04,0.32-2.84,0.38
			c0.08-0.14,0.15-0.27,0.23-0.41c0.73-0.06,1.55-0.16,2.54-0.35c1.95-0.37,3.43-0.99,4.44-1.54c1.07-0.58,1.6-1.08,1.6-1.08
			l2.65,4.15c0,0-0.7,0.49-1.82,1.1c-1.47,0.8-3.67,1.82-6.04,2.27c-2.7,0.51-5.26,0.36-6.88,0.16
			C42.17,54.57,42.27,54.45,42.38,54.33z"/>
		<path class="st2" d="M57.81,5.01c-0.48-0.66-1.03-1.03-1.55-1.56L54.7,1.98c-0.24-0.32-0.78-0.32-1.05-0.07l-0.92,0.55l-3.69,2.22
			l0.01,0.02l3.74-2.14l0.93-0.54C54,1.8,54.37,1.81,54.6,2.09l1.54,1.5c0.48,0.5,1.1,1.01,1.46,1.5c0.07,0.2-0.01,0.36-0.13,0.5
			c-0.06,0.07-0.12,0.13-0.21,0.18c-0.02,0.02-0.03,0.04-0.06,0.05l-0.88,0.61c-0.74,0.54-1.48,1.08-2.22,1.61
			c-0.1,0.08-0.21,0.16-0.31,0.23c-0.06,0.04-0.11,0.08-0.17,0.13c-0.25,0.19-0.5,0.37-0.75,0.56c-0.01,0.01-0.02,0.01-0.02,0.02
			l0.01,0.02C52.87,9,52.87,9,52.88,8.99c0.26-0.16,0.52-0.34,0.78-0.51c0.06-0.04,0.12-0.08,0.18-0.11
			c0.11-0.07,0.22-0.14,0.32-0.21c0.76-0.51,1.52-1.02,2.29-1.52l0.88-0.62c0.02-0.02,0.05-0.04,0.08-0.06
			c0.07-0.05,0.14-0.11,0.21-0.18c0.05-0.05,0.1-0.09,0.14-0.15C57.87,5.44,57.89,5.21,57.81,5.01z"/>
		<path class="st2" d="M28.23,13.38c-0.22-0.06-0.45-0.11-0.67-0.17c-0.07-0.02-0.14-0.04-0.21-0.05c-0.18-0.05-0.36-0.09-0.54-0.14
			c-0.84-0.22-1.68-0.44-2.52-0.65l-0.66-0.16l-0.33-0.08c-0.08-0.01-0.14-0.03-0.21-0.05c-0.24-0.08-0.4-0.24-0.41-0.49
			c0.16-0.56,0.54-1.21,0.8-1.82l0.83-1.86c0.1-0.31,0.4-0.44,0.73-0.35l0.88,0.13l0.12,0.02c0.47,0.07,0.95,0.13,1.42,0.2
			c0.87,0.12,1.73,0.25,2.6,0.36c-0.99-0.19-1.98-0.35-2.97-0.52c-0.22-0.07-0.43-0.1-0.64-0.11c-0.13-0.02-0.26-0.05-0.4-0.07
			l-1-0.17c-0.32-0.13-0.82,0.06-0.92,0.44l-0.86,1.84c-0.25,0.64-0.6,1.18-0.78,1.91c-0.01,0.33,0.26,0.55,0.53,0.64
			c0.08,0.03,0.16,0.05,0.23,0.05l0.28,0.06l0.71,0.16c0.84,0.2,1.7,0.37,2.54,0.55c0.18,0.04,0.36,0.08,0.54,0.12
			c0.07,0.01,0.14,0.03,0.21,0.05C27.78,13.28,28,13.33,28.23,13.38z"/>
		<path class="st2" d="M23.14,24.6c0.24-0.05,0.39-0.27,0.35-0.51c-0.05-0.24-0.27-0.39-0.51-0.35c-0.24,0.05-0.39,0.27-0.35,0.51
			C22.67,24.49,22.9,24.64,23.14,24.6z"/>
		<path class="st2" d="M24.66,34.71c0.23-0.08,0.35-0.33,0.27-0.56c-0.08-0.23-0.33-0.35-0.56-0.27c-0.23,0.08-0.35,0.33-0.27,0.56
			C24.18,34.66,24.43,34.79,24.66,34.71z"/>
		<path class="st2" d="M23.5,29.43c0.24-0.05,0.39-0.27,0.35-0.51c-0.04-0.24-0.27-0.39-0.51-0.35c-0.24,0.05-0.39,0.27-0.35,0.51
			C23.03,29.32,23.26,29.48,23.5,29.43z"/>
		<path class="st2" d="M26.86,39.16c-0.11-0.21-0.38-0.3-0.59-0.18c-0.21,0.11-0.3,0.38-0.18,0.59c0.11,0.21,0.38,0.3,0.59,0.18
			C26.89,39.64,26.97,39.38,26.86,39.16z"/>
		<path class="st2" d="M63.76,26.77c0.01,0.24,0.22,0.43,0.46,0.42c0.24-0.01,0.43-0.22,0.42-0.46c-0.01-0.24-0.22-0.43-0.46-0.42
			C63.94,26.32,63.75,26.53,63.76,26.77z"/>
		<path class="st2" d="M61.76,16.36c-0.24,0.05-0.39,0.27-0.35,0.51c0.05,0.24,0.27,0.39,0.51,0.35c0.24-0.05,0.39-0.27,0.35-0.51
			C62.23,16.47,62,16.32,61.76,16.36z"/>
		<path class="st2" d="M63.81,32.14c-0.03,0.24,0.15,0.46,0.39,0.48c0.24,0.03,0.46-0.15,0.48-0.39c0.03-0.24-0.15-0.46-0.39-0.48
			C64.05,31.72,63.84,31.9,63.81,32.14z"/>
		<path class="st2" d="M61.02,12.78c-0.01-0.01-0.73-0.62-1.59-0.18c-0.12,0.07-0.21,0.16-0.24,0.29c-0.11,0.39,0.21,0.97,0.5,1.48
			l0.13,0.23c0.04,0.07,3.65,7.6,3.53,15.67c-0.13,7.06-2.73,11.41-3.52,12.57l-0.01,0.01l0,0.01c-0.21,0.49-0.37,1.51,0.5,1.89
			c1.07,0.46,1.84-0.65,1.85-0.66c0.04-0.06,4.66-6.26,3.67-16.76C64.83,16.85,61.06,12.82,61.02,12.78z M64.67,23.5
			c0.14,0.73,0.25,1.49,0.34,2.26c0.76,7.01-0.52,13.03-3.82,17.88c-0.65,0.43-0.97,0.46-1.13,0.41c-0.09-0.03-0.15-0.09-0.19-0.19
			c-0.06-0.42,0.11-0.86,0.13-0.9c0.81-1.19,3.42-5.58,3.55-12.68c0.03-2.23-0.22-4.42-0.6-6.43c-1.01-5.3-2.93-9.3-2.95-9.35
			l-0.13-0.24c-0.19-0.34-0.42-0.75-0.48-1.06c-0.02-0.1-0.02-0.18,0-0.26c0.02-0.07,0.06-0.12,0.14-0.16
			c0.35-0.18,0.68-0.15,0.92-0.08C60.7,13.08,63.51,17.37,64.67,23.5z"/>
		<path class="st2" d="M63.2,20.99c-0.24,0.05-0.39,0.27-0.35,0.51c0.05,0.24,0.27,0.39,0.51,0.35c0.24-0.05,0.39-0.27,0.35-0.51
			C63.67,21.1,63.44,20.94,63.2,20.99z"/>
		<path class="st2" d="M59.66,45.31c-1.05-0.72-0.67-3.03-0.67-3.03c-1.89,3.06-4.23,4.62-4.23,4.62l2.56,3.55
			c0,0,4.78-4.79,4.96-5.44c0,0-0.12,0.09-0.32,0.2C61.46,45.47,60.47,45.87,59.66,45.31z M57.37,49.85l-2.07-2.87
			c0.6-0.46,1.94-1.57,3.24-3.35c0.05,0.73,0.27,1.56,0.89,2c0.54,0.37,1.13,0.41,1.65,0.31C60.21,46.92,58.78,48.43,57.37,49.85z"
			/>
		<path class="st2" d="M60.85,42.1c-0.11,0.22-0.02,0.48,0.2,0.59c0.22,0.11,0.48,0.02,0.59-0.2c0.11-0.22,0.02-0.48-0.2-0.59
			C61.22,41.8,60.96,41.89,60.85,42.1z"/>
		<path class="st2" d="M62.96,36.96c-0.03,0.24,0.13,0.46,0.37,0.5c0.24,0.04,0.46-0.13,0.5-0.37c0.03-0.24-0.13-0.46-0.37-0.5
			S62.99,36.72,62.96,36.96z"/>
		<path class="st18" d="M43.13,53.49c0.8-0.98,1.55-2.02,2.21-3.11c0.8-0.06,1.73-0.17,2.84-0.38c1.67-0.31,3.2-0.85,4.55-1.58
			c0.6-0.33,1.05-0.63,1.32-0.84l2.21,3.47c-0.3,0.2-0.82,0.51-1.48,0.87c-1.42,0.77-3.59,1.79-5.92,2.23
			c-2.5,0.48-4.89,0.36-6.49,0.18C42.63,54.05,42.89,53.79,43.13,53.49z"/>
		<path class="st18" d="M59.44,45.63c-0.63-0.44-0.84-1.26-0.89-2c-1.31,1.78-2.64,2.9-3.24,3.35l2.07,2.87
			c1.41-1.42,2.84-2.93,3.72-3.92C60.57,46.03,59.98,46,59.44,45.63z"/>
		<path class="st18" d="M60.26,31.54c-0.41,9.61-5.93,12.84-6.17,12.98l-0.05,0.03c0.12,0.44,0.41,1.47,0.47,1.68
			c0.86-0.7,6.27-5.39,6.88-12.9c0.26-3.29,0.02-6.52-0.54-9.5c-0.95-5-2.82-9.27-4.72-11.84c-0.69-0.94-1.27-1.72-1.75-2.41
			l-0.65,0.5C58.09,15.8,60.31,23,60.26,31.54z"/>
		<path class="st18" d="M58.06,6.28l0.27-0.21c0.07-0.06,0.13-0.12,0.18-0.2c0.05-0.07,0.09-0.15,0.11-0.24
			c0.05-0.17,0.05-0.34,0-0.51c-0.01-0.04-0.03-0.08-0.05-0.12c-0.02-0.04-0.04-0.07-0.06-0.11c-0.01-0.02-0.02-0.03-0.04-0.05
			c-0.01-0.02-0.03-0.03-0.04-0.05l-0.02-0.02l-0.02-0.02c-0.01-0.01-0.02-0.02-0.04-0.03c-0.03-0.04-0.05-0.1-0.08-0.13l-3.42-3.28
			c-0.23-0.22-0.58-0.26-0.86-0.1l-4.96,2.91c-0.07,0.04-0.15,0.08-0.22,0.11l-0.38,0.2l-0.05,0.02c-0.01,0-0.02,0.01-0.03,0.02
			L48.32,4.5c-0.04,0.03-0.08,0.05-0.12,0.09C48.12,4.64,48.06,4.72,48,4.8c-0.11,0.17-0.16,0.37-0.16,0.57c0,0.1,0.02,0.2,0.05,0.3
			c0.03,0.1,0.08,0.19,0.14,0.27c0.02,0.02,0.03,0.04,0.05,0.06l0.03,0.03l0.02,0.02l0.07,0.08l0.14,0.16l0.28,0.32
			c0.19,0.21,0.38,0.43,0.57,0.64c0.76,0.85,1.54,1.68,2.32,2.51l0.07,0.08l0.04,0.04c0.02,0.02,0.04,0.04,0.06,0.06
			c0.09,0.08,0.18,0.14,0.29,0.19c0.21,0.1,0.45,0.13,0.68,0.09c0.11-0.02,0.23-0.06,0.33-0.11l0.04-0.02
			c0.01-0.01,0.03-0.01,0.04-0.02c0.02-0.02,0.05-0.03,0.07-0.05l0.09-0.06l0.27-0.2c0,0,0,0,0.01,0.01L58.06,6.28
			C58.06,6.28,58.06,6.28,58.06,6.28z M57.41,5.96C57.39,5.98,57.36,6,57.33,6.02l-0.88,0.62c-0.77,0.5-1.53,1.02-2.29,1.52
			c-0.11,0.07-0.22,0.14-0.32,0.21c-0.06,0.04-0.12,0.08-0.18,0.11c-0.26,0.17-0.52,0.34-0.78,0.51C52.87,9,52.87,9,52.86,9.01
			l-0.01-0.02c0.01-0.01,0.02-0.01,0.02-0.02c0.25-0.19,0.5-0.37,0.75-0.56c0.06-0.04,0.11-0.08,0.17-0.13
			c0.1-0.08,0.21-0.16,0.31-0.23c0.74-0.54,1.48-1.07,2.22-1.61l0.88-0.61c0.03-0.01,0.03-0.04,0.06-0.05
			c0.09-0.05,0.15-0.12,0.21-0.18c0.13-0.15,0.2-0.31,0.13-0.5c-0.35-0.49-0.98-1-1.46-1.5l-1.54-1.5C54.37,1.81,54,1.8,53.72,2.02
			l-0.93,0.54L49.05,4.7l-0.01-0.02l3.69-2.22l0.92-0.55c0.27-0.25,0.81-0.25,1.05,0.07l1.56,1.48c0.51,0.53,1.07,0.9,1.55,1.56
			c0.07,0.2,0.06,0.43-0.05,0.62c-0.04,0.07-0.09,0.11-0.14,0.15C57.56,5.85,57.49,5.91,57.41,5.96z"/>
		<path class="st18" d="M41.4,55.36c3.39,0.39,10.06,0.42,16.32-3.8c-0.13-0.21-0.44-0.7-0.44-0.7l0.25-0.18
			c0.06-0.04,5.96-4.3,8.07-10.84c1.77-5.47,2.13-10.99,1.08-16.51c-0.6-3.16-1.66-6.31-3.19-9.45c-1.7-2.97-3.61-5.46-5.17-7.29
			l-3.76,2.86c0.48,0.68,1.05,1.46,1.75,2.41c3.05,4.12,6.02,12.61,5.3,21.48c-0.66,8.22-7.02,13.11-7.09,13.16l-0.13,0.1
			l-0.04-0.15l-0.08-0.29c-0.74,0.51-3.97,2.58-8.28,3.04c-0.14,0.26-0.27,0.53-0.42,0.78c0.73-0.06,1.55-0.16,2.54-0.35
			c1.95-0.37,3.43-0.99,4.44-1.54c1.07-0.58,1.6-1.08,1.6-1.08l2.65,4.15c0,0-0.7,0.49-1.82,1.1c-1.47,0.8-3.67,1.82-6.04,2.27
			c-2.7,0.51-5.26,0.36-6.88,0.16C41.84,54.91,41.62,55.14,41.4,55.36z M62.16,44.1c-0.01,0.01-0.78,1.12-1.85,0.66
			c-0.87-0.38-0.71-1.4-0.5-1.89l0-0.01l0.01-0.01c0.79-1.16,3.39-5.51,3.52-12.57c0.12-8.07-3.49-15.6-3.53-15.67l-0.13-0.23
			c-0.29-0.51-0.61-1.09-0.5-1.48c0.04-0.13,0.12-0.23,0.24-0.29c0.86-0.44,1.57,0.17,1.59,0.18c0.04,0.04,3.81,4.07,4.8,14.56
			C66.82,37.85,62.2,44.05,62.16,44.1z M54.76,46.9c0,0,2.34-1.56,4.22-4.62c0,0-0.38,2.3,0.67,3.03c0.81,0.56,1.81,0.17,2.31-0.11
			c0.2-0.11,0.32-0.2,0.32-0.2c-0.19,0.65-4.96,5.44-4.96,5.44L54.76,46.9z"/>
		<path class="st18" d="M22.56,13.42l4.36,1.22c-0.21,0.74-0.47,1.79-0.82,3.44c-1.64,7.68-0.54,15.02,3.27,21.83
			c1.91,3.42,4.16,5.6,6.17,7.01c-0.07,0.09-0.15,0.18-0.22,0.27c-0.16-0.11-0.31-0.2-0.47-0.32c0,0,0.13,0.23,0.28,0.55
			c-0.15,0.17-0.29,0.35-0.44,0.51c-0.07-0.1-0.14-0.18-0.2-0.25l-0.01-0.01l-0.01-0.01c-1.16-0.79-5.17-3.88-7.89-10.4
			c-3.07-7.46-2.48-15.79-2.47-15.87l0.03-0.26c0.08-0.58,0.17-1.24-0.08-1.56c-0.08-0.11-0.19-0.17-0.33-0.18
			c-0.96-0.09-1.4,0.74-1.41,0.75c-0.02,0.05-2.05,5.18,0.88,15.31c2.93,10.13,9.5,14.21,9.56,14.24c0,0,0.04,0.02,0.09,0.05
			c-0.32,0.27-0.65,0.51-1.01,0.71c-0.04,0.02-0.09,0.04-0.14,0.06c-2.95-2.12-5.09-4.66-6.53-6.84c-2.16-3.27-3.68-7.04-4.4-10.85
			c-0.34-1.81-0.51-3.62-0.48-5.4C20.41,19.57,21.62,15.85,22.56,13.42z"/>
		<path class="st18" d="M26.32,18.13c0.34-1.64,0.61-2.69,0.81-3.42L28.18,15c-0.03,0.11-0.06,0.22-0.09,0.34l-0.09,0.34
			c-0.76,2.78-2.79,10.18,1.15,19.99c2.16,5.39,5.08,8.27,7.39,9.81c-0.26,0.44-0.55,0.87-0.87,1.28c-1.98-1.39-4.22-3.56-6.12-6.95
			c-1.69-3.03-2.84-6.16-3.46-9.38C25.35,26.45,25.42,22.34,26.32,18.13z"/>
		<path class="st18" d="M28.43,14.66l0.1,0.03c0.03,0.01,0.06,0.01,0.08,0.02c0.01,0,0.03,0,0.04,0.01l0.04,0
			c0.11,0.01,0.23,0,0.34-0.02c0.23-0.05,0.44-0.16,0.6-0.33c0.08-0.08,0.15-0.18,0.2-0.28c0.01-0.03,0.02-0.05,0.04-0.08l0.02-0.05
			l0.04-0.1c0.43-1.05,0.85-2.11,1.24-3.18c0.1-0.27,0.2-0.53,0.29-0.8l0.14-0.4l0.07-0.2l0.04-0.1l0.01-0.03l0.01-0.04
			c0.01-0.02,0.01-0.05,0.02-0.07c0.03-0.1,0.04-0.2,0.03-0.31c-0.01-0.1-0.03-0.2-0.06-0.3c-0.07-0.19-0.19-0.35-0.35-0.47
			c-0.08-0.06-0.17-0.1-0.26-0.13c-0.05-0.02-0.09-0.03-0.14-0.04l-0.04-0.01c-0.01,0-0.03,0-0.03,0l-0.05-0.01l-0.43-0.04
			c-0.08-0.01-0.16-0.02-0.25-0.03l-5.68-0.89c-0.32-0.05-0.63,0.12-0.77,0.41l-1.97,4.3c-0.02,0.05-0.02,0.1-0.03,0.16
			c-0.01,0.01-0.01,0.02-0.02,0.04l-0.01,0.03l-0.01,0.03c-0.01,0.02-0.01,0.04-0.02,0.06c-0.01,0.02-0.01,0.04-0.02,0.06
			c-0.01,0.04-0.02,0.08-0.02,0.12c0,0.04,0,0.08,0,0.13c0.01,0.17,0.08,0.34,0.18,0.47c0.05,0.07,0.12,0.13,0.19,0.18
			c0.07,0.05,0.15,0.09,0.24,0.12l0.2,0.06l5.96,1.67L28.43,14.66z M26.8,13.06c-0.85-0.18-1.7-0.36-2.54-0.55l-0.71-0.16
			l-0.28-0.06c-0.07,0-0.15-0.02-0.23-0.05c-0.27-0.09-0.54-0.32-0.53-0.64c0.18-0.73,0.53-1.27,0.78-1.91l0.86-1.84
			c0.1-0.37,0.6-0.57,0.92-0.44l1,0.17c0.13,0.02,0.26,0.05,0.4,0.07c0.21,0.01,0.42,0.04,0.64,0.11c0.99,0.17,1.98,0.33,2.97,0.52
			c-0.87-0.11-1.74-0.24-2.6-0.36c-0.47-0.07-0.95-0.12-1.42-0.2L25.93,7.7l-0.88-0.13c-0.33-0.1-0.63,0.04-0.73,0.35l-0.83,1.86
			c-0.26,0.6-0.64,1.25-0.8,1.82c0.01,0.25,0.17,0.41,0.41,0.49c0.06,0.02,0.13,0.04,0.21,0.05l0.33,0.08l0.66,0.16
			c0.84,0.2,1.68,0.43,2.52,0.65c0.18,0.05,0.36,0.09,0.54,0.14c0.07,0.02,0.14,0.04,0.21,0.05c0.22,0.06,0.45,0.11,0.67,0.17
			c-0.23-0.05-0.45-0.1-0.67-0.15c-0.07-0.01-0.14-0.03-0.21-0.05C27.16,13.15,26.98,13.1,26.8,13.06z"/>
		<path class="st18" d="M22.86,31.45c0.14,0.73,0.31,1.47,0.52,2.23c1.86,6.8,5.26,11.93,10.11,15.23c0.09,0.02,0.15,0.02,0.23,0.04
			c0.05-0.04,0.09-0.09,0.14-0.13c0.24-0.23,0.46-0.48,0.69-0.72c-0.1-0.14-0.18-0.23-0.2-0.25c-1.19-0.81-5.22-3.93-7.96-10.49
			c-0.85-2.06-1.42-4.19-1.8-6.2c-1.01-5.3-0.69-9.73-0.68-9.78l0.03-0.27c0.05-0.39,0.11-0.85,0.06-1.16
			c-0.02-0.1-0.05-0.18-0.1-0.24c-0.05-0.06-0.11-0.09-0.19-0.1c-0.4-0.04-0.69,0.11-0.88,0.27C22.74,20.3,21.7,25.32,22.86,31.45z
			 M32.65,47.38c0.16-0.18,0.44-0.19,0.62-0.03c0.18,0.16,0.19,0.44,0.03,0.62c-0.16,0.18-0.44,0.19-0.62,0.03
			C32.5,47.84,32.49,47.56,32.65,47.38z M28.83,43.17c0.21-0.12,0.48-0.05,0.6,0.16c0.12,0.21,0.05,0.48-0.16,0.6
			c-0.21,0.12-0.48,0.05-0.6-0.16C28.54,43.56,28.62,43.29,28.83,43.17z M26.27,38.98c0.21-0.11,0.48-0.03,0.59,0.18
			c0.11,0.21,0.03,0.48-0.18,0.59c-0.21,0.11-0.48,0.03-0.59-0.18C25.97,39.36,26.06,39.09,26.27,38.98z M24.11,34.43
			c-0.08-0.23,0.05-0.48,0.28-0.56c0.23-0.08,0.48,0.05,0.56,0.27c0.08,0.23-0.05,0.48-0.27,0.56
			C24.43,34.79,24.18,34.66,24.11,34.43z M22.99,29.08c-0.05-0.24,0.11-0.47,0.35-0.51c0.24-0.05,0.47,0.11,0.51,0.35
			c0.05,0.24-0.11,0.47-0.35,0.51C23.26,29.48,23.03,29.32,22.99,29.08z M22.63,24.25c-0.05-0.24,0.11-0.47,0.35-0.51
			s0.47,0.11,0.51,0.35c0.05,0.24-0.11,0.47-0.35,0.51C22.9,24.64,22.67,24.49,22.63,24.25z"/>
		<path class="st18" d="M46.86,47.24c3.75-0.45,5.98-2.29,6.63-2.91c0.08,0.06,0.23,0.16,0.33,0.23l0.38,1.37
			c-0.57,0.4-3.77,2.52-8.09,3.03C46.4,48.4,46.64,47.82,46.86,47.24z"/>
		<path class="st18" d="M59.53,12.79c-0.07,0.04-0.11,0.09-0.14,0.16c-0.02,0.07-0.02,0.16,0,0.26c0.06,0.31,0.29,0.72,0.48,1.06
			l0.13,0.24c0.03,0.05,1.95,4.05,2.95,9.35c0.38,2.01,0.63,4.2,0.6,6.43c-0.14,7.1-2.74,11.49-3.55,12.68
			c-0.02,0.05-0.19,0.48-0.13,0.9c0.04,0.1,0.11,0.16,0.19,0.19c0.16,0.05,0.48,0.01,1.13-0.41c3.3-4.85,4.58-10.87,3.82-17.88
			c-0.09-0.78-0.2-1.53-0.34-2.26c-1.17-6.13-3.98-10.42-4.22-10.78C60.21,12.64,59.89,12.61,59.53,12.79z M61.64,42.49
			c-0.11,0.22-0.37,0.3-0.59,0.2c-0.22-0.11-0.3-0.37-0.2-0.59s0.37-0.3,0.59-0.2C61.66,42.01,61.74,42.28,61.64,42.49z
			 M63.82,37.09c-0.03,0.24-0.26,0.41-0.5,0.37c-0.24-0.04-0.4-0.26-0.37-0.5c0.03-0.24,0.26-0.41,0.5-0.37S63.86,36.85,63.82,37.09
			z M64.68,32.23c-0.03,0.24-0.24,0.41-0.48,0.39c-0.24-0.03-0.41-0.24-0.39-0.48c0.03-0.24,0.24-0.41,0.48-0.39
			C64.53,31.78,64.71,31.99,64.68,32.23z M64.64,26.73c0.01,0.24-0.17,0.45-0.42,0.46c-0.24,0.01-0.45-0.17-0.46-0.42
			c-0.01-0.24,0.17-0.45,0.42-0.46C64.42,26.3,64.62,26.49,64.64,26.73z M63.36,21.85c-0.24,0.05-0.47-0.11-0.51-0.35
			c-0.05-0.24,0.11-0.47,0.35-0.51s0.47,0.11,0.51,0.35C63.76,21.58,63.6,21.81,63.36,21.85z M61.93,17.22
			c-0.24,0.05-0.47-0.11-0.51-0.35c-0.05-0.24,0.11-0.47,0.35-0.51s0.47,0.11,0.51,0.35C62.32,16.95,62.16,17.18,61.93,17.22z"/>
		<path class="st9" d="M54.27,9.42c0.03,0.05,0.08,0.11,0.11,0.16l0.17-0.13c-0.03-0.05-0.08-0.11-0.11-0.16L54.27,9.42z"/>
		<path class="st9" d="M26.97,14.46c-0.02,0.05-0.03,0.13-0.05,0.19l0.21,0.06c0.02-0.06,0.04-0.13,0.05-0.19L26.97,14.46z"/>
	</g>
	<g>
		<path class="st2" d="M8.22,48.06c-0.11-0.22-0.37-0.31-0.58-0.2c-0.22,0.1-0.31,0.37-0.2,0.58c0.11,0.22,0.37,0.31,0.58,0.2
			C8.23,48.54,8.33,48.28,8.22,48.06z"/>
		<path class="st2" d="M5.69,42.51C5.45,42.54,5.29,42.76,5.32,43c0.03,0.24,0.25,0.41,0.49,0.38c0.24-0.03,0.41-0.25,0.38-0.49
			C6.15,42.65,5.93,42.48,5.69,42.51z"/>
		<path class="st2" d="M8.7,50.72c0.87-0.36,0.73-1.39,0.52-1.88l0-0.01l-0.01-0.01c-0.78-1.17-3.31-5.56-3.35-12.62
			c-0.01-8.07,3.7-15.55,3.74-15.62l0.13-0.23c0.29-0.51,0.63-1.09,0.52-1.48c-0.04-0.13-0.12-0.23-0.24-0.3
			c-0.85-0.45-1.58,0.15-1.59,0.16c-0.04,0.04-3.86,4.01-5,14.5c-1.14,10.49,3.4,16.75,3.44,16.81C6.87,50.05,7.63,51.17,8.7,50.72z
			 M4.26,31.65c0.1-0.78,0.22-1.53,0.37-2.26C5.88,23.29,8.75,19.04,9,18.67c0.24-0.07,0.56-0.1,0.92,0.09
			c0.07,0.04,0.11,0.09,0.13,0.16c0.02,0.07,0.02,0.16,0,0.26c-0.06,0.31-0.3,0.71-0.49,1.05l-0.13,0.23
			c-0.03,0.05-2,4.03-3.08,9.31c-0.41,2-0.69,4.19-0.69,6.42c0.04,7.1,2.59,11.52,3.38,12.73c0.02,0.05,0.18,0.48,0.12,0.9
			c-0.04,0.1-0.11,0.16-0.19,0.18c-0.16,0.05-0.48,0.01-1.12-0.43C4.6,44.69,3.4,38.65,4.26,31.65z"/>
		<path class="st2" d="M9.87,48.22c0,0,0.34,2.31-0.71,3.02c-0.23,0.16-0.48,0.24-0.72,0.26c-0.96,0.11-1.9-0.6-1.9-0.6
			c0.18,0.65,4.89,5.51,4.89,5.51l2.61-3.52C14.04,52.89,11.72,51.3,9.87,48.22z M11.39,55.81c-1.39-1.45-2.81-2.97-3.67-3.97
			c0.24,0.05,0.5,0.07,0.76,0.04c0.33-0.04,0.63-0.15,0.89-0.33c0.63-0.43,0.86-1.25,0.92-1.99c1.28,1.8,2.6,2.93,3.2,3.4
			L11.39,55.81z"/>
		<path class="st2" d="M25.78,56.06c-1.14,0.13-2.75,0.14-4.69-0.26C16.18,54.79,15,53.37,15,53.37l-2.94,3.88
			c0,0,3.45,2.49,7.94,3.4c2.36,0.48,4.78,0.38,6.45,0.19c1.28-0.14,2.11-0.33,2.11-0.33l-0.87-4.85
			C27.67,55.67,26.99,55.92,25.78,56.06z M26.4,60.46c-1.6,0.18-4,0.29-6.33-0.19c-3.57-0.73-6.5-2.49-7.46-3.12l2.44-3.22
			c0.65,0.5,2.31,1.49,5.96,2.24c1.66,0.34,3.28,0.43,4.81,0.26c0.68-0.08,1.21-0.19,1.55-0.28l0.73,4.05
			C27.74,60.28,27.15,60.38,26.4,60.46z"/>
		<path class="st2" d="M47,18.21c-0.19-0.79-0.56-1.34-0.84-2.03l-0.89-1.96c-0.1-0.39-0.6-0.59-0.95-0.46l-1.06,0.16l-4.26,0.65
			l0,0.02l4.27-0.56l1.07-0.14c0.35-0.1,0.69,0.05,0.79,0.39l0.85,1.98c0.25,0.64,0.64,1.35,0.78,1.94
			c-0.01,0.21-0.14,0.33-0.31,0.42c-0.08,0.04-0.16,0.07-0.26,0.09c-0.03,0-0.04,0.02-0.07,0.03l-1.05,0.23
			c-0.89,0.22-1.78,0.43-2.66,0.65c-0.13,0.03-0.25,0.06-0.38,0.1c-0.07,0.02-0.14,0.03-0.2,0.05c-0.3,0.08-0.61,0.15-0.91,0.23
			c-0.01,0-0.02,0-0.03,0.01l0.01,0.02c0.01,0,0.02,0,0.03-0.01c0.3-0.05,0.61-0.12,0.91-0.17c0.07-0.01,0.14-0.03,0.21-0.04
			c0.13-0.02,0.25-0.05,0.38-0.07c0.9-0.18,1.8-0.36,2.7-0.54l1.05-0.23c0.03-0.01,0.06-0.02,0.1-0.02
			c0.09-0.02,0.17-0.05,0.27-0.09c0.06-0.02,0.13-0.04,0.19-0.09C46.89,18.63,46.99,18.42,47,18.21z"/>
		<path class="st2" d="M16.45,14.72c-0.18-0.14-0.37-0.27-0.55-0.41c-0.06-0.04-0.12-0.09-0.17-0.13c-0.15-0.11-0.3-0.22-0.45-0.33
			c-0.69-0.52-1.38-1.05-2.09-1.55l-0.55-0.4l-0.28-0.2c-0.07-0.04-0.12-0.08-0.18-0.12C12,11.4,11.92,11.19,12,10.96
			c0.36-0.46,0.96-0.92,1.43-1.38l1.47-1.4c0.21-0.25,0.54-0.26,0.81-0.05l0.77,0.46l0.11,0.06C17,8.9,17.41,9.13,17.83,9.37
			c0.76,0.44,1.51,0.89,2.27,1.32c-0.84-0.55-1.69-1.08-2.55-1.6C17.38,8.94,17.19,8.83,17,8.74c-0.11-0.07-0.23-0.14-0.34-0.21
			L15.8,7.99c-0.25-0.24-0.79-0.25-1.02,0.05l-1.5,1.37c-0.48,0.5-1.01,0.86-1.45,1.47c-0.14,0.3,0.03,0.61,0.24,0.8
			c0.06,0.06,0.13,0.1,0.2,0.13l0.24,0.17l0.59,0.42c0.71,0.5,1.43,0.99,2.14,1.48c0.15,0.1,0.3,0.21,0.46,0.32
			c0.06,0.04,0.12,0.08,0.18,0.12C16.07,14.45,16.26,14.59,16.45,14.72z"/>
		<path class="st2" d="M7.49,23.17c0.24,0.05,0.47-0.1,0.52-0.34c0.05-0.24-0.1-0.47-0.34-0.52c-0.24-0.05-0.47,0.1-0.52,0.34
			C7.1,22.89,7.25,23.12,7.49,23.17z"/>
		<path class="st2" d="M5.06,33.1c0.24,0.02,0.45-0.17,0.47-0.41c0.02-0.24-0.17-0.45-0.41-0.46c-0.24-0.02-0.45,0.17-0.47,0.41
			C4.63,32.88,4.81,33.08,5.06,33.1z"/>
		<path class="st2" d="M5.98,27.77c0.24,0.05,0.47-0.1,0.52-0.34c0.05-0.24-0.1-0.47-0.34-0.52c-0.24-0.05-0.47,0.1-0.52,0.34
			C5.59,27.49,5.75,27.73,5.98,27.77z"/>
		<path class="st2" d="M5.4,38.05c-0.02-0.24-0.24-0.42-0.48-0.39c-0.24,0.02-0.42,0.24-0.4,0.48c0.02,0.24,0.24,0.42,0.48,0.39
			C5.25,38.51,5.42,38.29,5.4,38.05z"/>
		<path class="st2" d="M44.24,40.6c-0.08,0.23,0.04,0.48,0.27,0.56c0.23,0.08,0.48-0.04,0.56-0.27s-0.04-0.48-0.27-0.56
			C44.57,40.25,44.32,40.37,44.24,40.6z"/>
		<path class="st2" d="M46.34,30.21c-0.24-0.05-0.47,0.1-0.52,0.34c-0.05,0.24,0.1,0.47,0.34,0.52c0.24,0.05,0.47-0.1,0.52-0.34
			C46.73,30.49,46.58,30.26,46.34,30.21z"/>
		<path class="st2" d="M42.25,45.58c-0.12,0.21-0.04,0.48,0.18,0.59c0.21,0.12,0.48,0.04,0.59-0.18c0.12-0.21,0.04-0.48-0.18-0.59
			C42.63,45.29,42.36,45.37,42.25,45.58z"/>
		<path class="st2" d="M47.02,26.62c-0.01-0.02-0.44-0.85-1.4-0.77c-0.14,0.01-0.25,0.07-0.34,0.18c-0.25,0.32-0.17,0.98-0.1,1.56
			l0.03,0.26c0.01,0.08,0.49,8.42-2.69,15.84c-2.8,6.48-6.86,9.52-8.03,10.29l-0.01,0.01l-0.01,0.01c-0.38,0.37-0.92,1.26-0.26,1.94
			c0.81,0.83,1.95,0.1,1.96,0.09c0.06-0.04,6.69-4.02,9.76-14.11C49,31.83,47.04,26.67,47.02,26.62z M46.33,37.91
			c-0.15,0.73-0.33,1.47-0.55,2.22c-1.95,6.78-5.43,11.85-10.32,15.09c-0.76,0.15-1.07,0.06-1.2-0.05
			c-0.07-0.06-0.11-0.14-0.11-0.25c0.11-0.41,0.43-0.75,0.46-0.79c1.2-0.79,5.28-3.86,8.1-10.38c0.88-2.05,1.48-4.17,1.89-6.17
			c1.08-5.28,0.82-9.72,0.82-9.77l-0.03-0.27c-0.05-0.39-0.1-0.85-0.04-1.16c0.02-0.1,0.05-0.18,0.1-0.24
			c0.05-0.06,0.11-0.09,0.19-0.1c0.4-0.03,0.69,0.12,0.88,0.28C46.6,26.77,47.58,31.8,46.33,37.91z"/>
		<path class="st2" d="M45.92,35.04c-0.24-0.05-0.47,0.1-0.52,0.34c-0.05,0.24,0.1,0.47,0.34,0.52s0.47-0.1,0.52-0.34
			S46.15,35.09,45.92,35.04z"/>
		<path class="st2" d="M33.41,56.19c-0.69-1.07,0.53-3.06,0.53-3.06c-2.91,2.11-5.66,2.67-5.66,2.67l1.02,4.26
			c0,0,6.24-2.62,6.66-3.15c0,0-0.15,0.04-0.37,0.06C35.02,57.03,33.95,57.02,33.41,56.19z M29.57,59.53l-0.83-3.44
			c0.73-0.19,2.39-0.72,4.27-1.87c-0.23,0.7-0.35,1.55,0.07,2.19c0.36,0.55,0.89,0.81,1.41,0.91
			C33.31,57.89,31.41,58.74,29.57,59.53z"/>
		<path class="st2" d="M35.73,53.68c-0.18,0.16-0.2,0.44-0.04,0.62c0.16,0.18,0.44,0.2,0.62,0.04c0.18-0.16,0.2-0.44,0.04-0.62
			C36.19,53.54,35.91,53.52,35.73,53.68z"/>
		<path class="st2" d="M39.63,49.72c-0.12,0.21-0.05,0.48,0.15,0.6c0.21,0.12,0.48,0.05,0.6-0.15s0.05-0.48-0.15-0.6
			C40.02,49.44,39.75,49.51,39.63,49.72z"/>
		<path class="st18" d="M25.82,56.44c-1.53,0.17-3.15,0.08-4.81-0.26c-3.65-0.75-5.31-1.74-5.96-2.24l-2.44,3.22
			c0.96,0.62,3.89,2.39,7.46,3.12c2.32,0.47,4.72,0.36,6.33,0.19c0.75-0.08,1.35-0.18,1.7-0.25l-0.73-4.05
			C27.03,56.25,26.51,56.37,25.82,56.44z"/>
		<path class="st18" d="M33.08,56.4c-0.42-0.64-0.3-1.49-0.07-2.19c-1.88,1.15-3.54,1.68-4.27,1.87l0.83,3.44
			c1.84-0.78,3.74-1.63,4.93-2.21C33.97,57.21,33.44,56.95,33.08,56.4z"/>
		<path class="st18" d="M9.38,51.56c-0.27,0.18-0.57,0.29-0.89,0.33c-0.26,0.03-0.52,0.01-0.76-0.04c0.86,1,2.27,2.52,3.67,3.97
			l2.11-2.84c-0.59-0.47-1.92-1.6-3.2-3.4C10.24,50.31,10.01,51.13,9.38,51.56z"/>
		<path class="st18" d="M39.19,43.68c-4.03,8.73-10.37,9.63-10.63,9.66l-0.05,0.01c-0.05,0.45-0.18,1.51-0.2,1.73
			c1.07-0.32,7.85-2.6,11.26-9.32c1.49-2.94,2.5-6.02,3.1-8.99c1.02-4.99,0.92-9.65,0.13-12.74c-0.29-1.13-0.52-2.08-0.7-2.89
			l-0.79,0.21C43.16,28.3,42.48,35.8,39.19,43.68z"/>
		<path class="st18" d="M46.75,19.48l0.33-0.09c0.09-0.03,0.17-0.06,0.24-0.11c0.07-0.05,0.14-0.11,0.19-0.18
			c0.11-0.14,0.17-0.3,0.19-0.47c0-0.04,0-0.08,0-0.13c0-0.04-0.01-0.08-0.02-0.12c0-0.02-0.01-0.04-0.01-0.06
			c-0.01-0.02-0.01-0.04-0.02-0.06l-0.01-0.03l-0.01-0.03c-0.01-0.02-0.01-0.03-0.02-0.04c-0.01-0.05-0.01-0.11-0.03-0.15
			l-1.92-4.33c-0.13-0.29-0.44-0.47-0.76-0.42l-5.7,0.81c-0.08,0.01-0.16,0.02-0.25,0.02l-0.43,0.04l-0.05,0c-0.01,0-0.02,0-0.03,0
			l-0.04,0c-0.05,0.01-0.09,0.02-0.14,0.03c-0.09,0.03-0.18,0.07-0.26,0.13c-0.16,0.11-0.29,0.28-0.36,0.46
			c-0.04,0.09-0.06,0.19-0.07,0.3c-0.01,0.1,0,0.21,0.03,0.31c0.01,0.02,0.01,0.05,0.02,0.07l0.01,0.04l0.01,0.03l0.03,0.1l0.07,0.2
			l0.14,0.4c0.09,0.27,0.19,0.54,0.28,0.81c0.38,1.07,0.78,2.14,1.2,3.2l0.04,0.1l0.02,0.05c0.01,0.03,0.02,0.05,0.04,0.08
			c0.05,0.1,0.12,0.2,0.2,0.29c0.16,0.17,0.37,0.29,0.59,0.34c0.11,0.03,0.23,0.03,0.35,0.02l0.04,0c0.01,0,0.03,0,0.04-0.01
			c0.03,0,0.06-0.01,0.08-0.02l0.1-0.02l0.33-0.08c0,0,0,0.01,0,0.01L46.75,19.48C46.75,19.48,46.75,19.48,46.75,19.48z
			 M46.27,18.94c-0.03,0.01-0.07,0.01-0.1,0.02l-1.05,0.23c-0.9,0.18-1.8,0.36-2.7,0.54c-0.13,0.03-0.25,0.05-0.38,0.07
			c-0.07,0.01-0.14,0.03-0.21,0.04c-0.3,0.06-0.61,0.12-0.91,0.17c-0.01,0-0.02,0-0.03,0.01L40.89,20c0.01,0,0.02,0,0.03-0.01
			c0.3-0.08,0.6-0.15,0.91-0.23c0.07-0.02,0.14-0.03,0.2-0.05c0.13-0.03,0.25-0.07,0.38-0.1c0.89-0.22,1.78-0.43,2.66-0.65
			l1.05-0.23c0.03,0,0.04-0.02,0.07-0.03c0.1-0.02,0.18-0.05,0.26-0.09c0.17-0.09,0.3-0.21,0.31-0.42c-0.14-0.59-0.53-1.3-0.78-1.94
			l-0.85-1.98c-0.1-0.34-0.44-0.49-0.79-0.39l-1.07,0.14l-4.27,0.56l0-0.02l4.26-0.65l1.06-0.16c0.34-0.13,0.85,0.07,0.95,0.46
			l0.89,1.96c0.27,0.68,0.65,1.24,0.84,2.03c-0.01,0.21-0.11,0.42-0.28,0.55c-0.06,0.05-0.12,0.07-0.19,0.09
			C46.44,18.89,46.35,18.92,46.27,18.94z"/>
		<path class="st18" d="M46.87,19.85l-4.57,1.22c0.18,0.81,0.41,1.75,0.7,2.9c1.26,4.98,0.78,13.95-3.25,21.89
			c-3.73,7.36-11.47,9.46-11.55,9.48l-0.15,0.04l0.02-0.16l0.04-0.3c-1.2,0.26-7.76,1.45-13.34-2.48l-0.09,0.44l-0.13-0.08
			c-0.06-0.03-5.94-3.55-7.1-13.11C6.5,31.96,8.27,24.74,12.7,18.27c0.94-1.4,1.59-2.27,2.06-2.87l-3.57-2.79
			c-1.79,1.89-4.32,4.87-7.42,12.1c-0.7,1.63-1.23,3.37-1.6,5.18c-0.78,3.8-0.81,7.86-0.05,11.71c0.87,4.39,3.16,10.57,9.13,15.01
			l0.25,0.19c0,0-0.35,0.51-0.5,0.73c1.41,0.97,8.84,5.66,18.25,3.72c-0.04-0.24-0.15-0.81-0.15-0.81l0.3-0.07
			c0.07-0.02,7.14-1.72,11.58-6.97c3.71-4.39,6.14-9.36,7.26-14.86c0.64-3.15,0.86-6.47,0.64-9.95
			C48.43,25.17,47.61,22.14,46.87,19.85z M3.42,33.23c1.14-10.48,4.96-14.46,5-14.5c0.01-0.01,0.74-0.61,1.59-0.16
			c0.12,0.07,0.2,0.17,0.24,0.3c0.11,0.39-0.22,0.97-0.52,1.48l-0.13,0.23c-0.04,0.07-3.75,7.55-3.74,15.62
			c0.04,7.06,2.57,11.44,3.35,12.62l0.01,0.01l0,0.01c0.2,0.49,0.35,1.52-0.52,1.88c-1.08,0.45-1.83-0.67-1.84-0.68
			C6.82,49.98,2.28,43.72,3.42,33.23z M11.42,56.41c0,0-4.71-4.86-4.89-5.51c0,0,0.94,0.71,1.9,0.6c0.24-0.03,0.49-0.11,0.72-0.26
			c1.06-0.71,0.71-3.02,0.71-3.02c1.85,3.08,4.16,4.67,4.16,4.67L11.42,56.41z M26.44,60.85c-1.66,0.18-4.09,0.29-6.45-0.19
			c-4.48-0.92-7.94-3.4-7.94-3.4L15,53.37c0,0,1.18,1.42,6.09,2.43c1.94,0.4,3.55,0.38,4.69,0.26c1.21-0.13,1.89-0.39,1.89-0.39
			l0.87,4.85C28.55,60.52,27.72,60.71,26.44,60.85z M29.3,60.06l-1.02-4.26c0,0,2.75-0.56,5.66-2.67c0,0-1.22,1.99-0.53,3.06
			c0.54,0.83,1.61,0.84,2.18,0.78c0.23-0.02,0.37-0.06,0.37-0.06C35.53,57.44,29.3,60.06,29.3,60.06z M45.93,41.91
			c-3.07,10.09-9.69,14.07-9.76,14.11c-0.01,0.01-1.15,0.74-1.96-0.09c-0.66-0.68-0.12-1.56,0.26-1.94l0.01-0.01l0.01-0.01
			c1.17-0.78,5.23-3.81,8.03-10.29c3.18-7.42,2.69-15.76,2.69-15.84l-0.03-0.26c-0.07-0.58-0.15-1.24,0.1-1.56
			c0.08-0.1,0.2-0.16,0.34-0.18c0.96-0.08,1.39,0.76,1.4,0.77C47.04,26.67,49,31.83,45.93,41.91z"/>
		<path class="st18" d="M12.88,18.39c-2.43,3.56-4.06,7.33-4.87,11.3c-0.66,3.21-0.78,6.55-0.36,9.99
			c1.05,8.7,6.03,12.31,6.86,12.86c0.04-0.2,0.26-1.29,0.39-1.89l-0.08-0.05c-0.25-0.15-6.07-3.92-5.98-14.91
			c0.08-10.58,4.76-16.65,6.52-18.93l0.22-0.28c0.08-0.1,0.14-0.19,0.21-0.28l-0.86-0.67C14.47,16.13,13.82,17,12.88,18.39z"/>
		<path class="st18" d="M16.15,15.99l0.09,0.06c0.02,0.02,0.05,0.03,0.07,0.05c0.01,0.01,0.02,0.02,0.04,0.02l0.04,0.02
			c0.1,0.05,0.21,0.09,0.33,0.11c0.23,0.04,0.47,0.01,0.68-0.08c0.11-0.05,0.2-0.11,0.29-0.19c0.02-0.02,0.04-0.04,0.06-0.06
			l0.04-0.04l0.08-0.08c0.8-0.81,1.59-1.63,2.36-2.47c0.19-0.21,0.39-0.42,0.58-0.63l0.29-0.32l0.14-0.16l0.07-0.08l0.02-0.02
			l0.03-0.03c0.02-0.02,0.03-0.04,0.05-0.06c0.06-0.08,0.11-0.17,0.14-0.27c0.03-0.1,0.05-0.2,0.06-0.3c0.01-0.2-0.05-0.4-0.15-0.57
			c-0.05-0.08-0.12-0.16-0.19-0.22c-0.04-0.03-0.08-0.06-0.12-0.09l-0.03-0.02c-0.01-0.01-0.02-0.01-0.03-0.02l-0.05-0.03l-0.38-0.2
			c-0.07-0.04-0.15-0.08-0.22-0.12l-4.92-2.98c-0.28-0.17-0.63-0.13-0.86,0.09l-3.46,3.23c-0.04,0.04-0.06,0.09-0.09,0.13
			c-0.01,0.01-0.02,0.02-0.03,0.03l-0.02,0.02l-0.02,0.02c-0.01,0.01-0.03,0.03-0.04,0.05c-0.01,0.02-0.03,0.03-0.04,0.05
			c-0.02,0.03-0.05,0.07-0.06,0.11c-0.02,0.04-0.04,0.08-0.05,0.12c-0.05,0.16-0.06,0.34-0.01,0.51c0.02,0.08,0.06,0.16,0.11,0.24
			c0.05,0.07,0.11,0.14,0.17,0.2l0.16,0.13l4.88,3.81L16.15,15.99z M15.25,13.89c-0.72-0.49-1.44-0.98-2.14-1.48l-0.59-0.42
			l-0.24-0.17c-0.07-0.03-0.13-0.08-0.2-0.13c-0.21-0.19-0.38-0.5-0.24-0.8c0.44-0.61,0.97-0.97,1.45-1.47l1.5-1.37
			c0.23-0.31,0.77-0.3,1.02-0.05l0.86,0.53C16.78,8.6,16.89,8.67,17,8.74c0.19,0.09,0.38,0.2,0.55,0.35
			c0.85,0.53,1.71,1.06,2.55,1.6c-0.76-0.43-1.52-0.88-2.27-1.32C17.41,9.13,17,8.9,16.59,8.65l-0.11-0.06l-0.77-0.46
			c-0.27-0.21-0.59-0.21-0.81,0.05l-1.47,1.4c-0.47,0.46-1.07,0.91-1.43,1.38c-0.09,0.23,0,0.44,0.19,0.61
			c0.05,0.04,0.11,0.09,0.18,0.12l0.28,0.2l0.55,0.4c0.7,0.51,1.39,1.03,2.09,1.55c0.15,0.11,0.3,0.22,0.45,0.33
			c0.06,0.04,0.12,0.09,0.17,0.13c0.18,0.14,0.37,0.27,0.55,0.41c-0.19-0.13-0.38-0.26-0.57-0.39c-0.06-0.04-0.12-0.08-0.18-0.12
			C15.55,14.1,15.4,13.99,15.25,13.89z"/>
		<path class="st18" d="M8.95,50.01c0.09-0.03,0.15-0.09,0.19-0.18c0.06-0.42-0.1-0.86-0.12-0.9c-0.79-1.2-3.34-5.62-3.38-12.73
			c0-2.23,0.28-4.42,0.69-6.42c1.08-5.28,3.05-9.26,3.08-9.31l0.13-0.23c0.2-0.34,0.43-0.75,0.49-1.05c0.02-0.1,0.02-0.18,0-0.26
			c-0.02-0.07-0.06-0.12-0.13-0.16C9.56,18.58,9.24,18.6,9,18.67c-0.25,0.36-3.12,4.61-4.37,10.72c-0.15,0.73-0.27,1.48-0.37,2.26
			c-0.86,7,0.34,13.03,3.57,17.93C8.47,50.02,8.8,50.06,8.95,50.01z M7.66,22.31C7.9,22.36,8.05,22.59,8,22.82
			c-0.05,0.24-0.28,0.39-0.52,0.34c-0.24-0.05-0.39-0.28-0.34-0.52C7.19,22.41,7.42,22.26,7.66,22.31z M6.16,26.92
			c0.24,0.05,0.39,0.28,0.34,0.52c-0.05,0.24-0.28,0.39-0.52,0.34c-0.24-0.05-0.39-0.28-0.34-0.52C5.69,27.02,5.92,26.87,6.16,26.92
			z M5.11,32.22c0.24,0.02,0.42,0.22,0.41,0.46c-0.02,0.24-0.22,0.42-0.47,0.41s-0.42-0.22-0.41-0.46
			C4.66,32.39,4.87,32.21,5.11,32.22z M4.53,38.14c-0.02-0.24,0.15-0.45,0.4-0.48c0.24-0.02,0.45,0.15,0.48,0.39
			c0.02,0.24-0.15,0.45-0.39,0.48C4.76,38.55,4.55,38.38,4.53,38.14z M5.81,43.38C5.57,43.41,5.35,43.24,5.32,43
			c-0.03-0.24,0.14-0.46,0.38-0.49c0.24-0.03,0.46,0.14,0.49,0.38C6.22,43.13,6.05,43.35,5.81,43.38z M7.43,48.44
			c-0.1-0.22-0.01-0.48,0.2-0.58c0.22-0.11,0.48-0.01,0.58,0.2c0.11,0.22,0.01,0.48-0.2,0.58C7.8,48.75,7.54,48.66,7.43,48.44z"/>
		<path class="st18" d="M15.47,50.4c-0.08,0.06-0.23,0.15-0.34,0.23l-0.32,1.58c5.67,4.04,12.38,2.7,13.32,2.49l0.17-1.42
			c-0.07-0.1-0.17-0.25-0.22-0.33C26.86,53.41,21.58,55,15.47,50.4z"/>
		<path class="st18" d="M45.64,26.06c-0.08,0.01-0.14,0.04-0.19,0.1c-0.05,0.06-0.08,0.14-0.1,0.24c-0.06,0.31-0.01,0.77,0.04,1.16
			l0.03,0.27c0.01,0.06,0.26,4.49-0.82,9.77c-0.41,2-1.01,4.12-1.89,6.17c-2.82,6.52-6.9,9.59-8.1,10.38
			c-0.03,0.04-0.36,0.37-0.46,0.79c0,0.11,0.04,0.19,0.11,0.25c0.13,0.1,0.44,0.19,1.2,0.05c4.89-3.24,8.36-8.32,10.32-15.09
			c0.22-0.75,0.4-1.49,0.55-2.22c1.25-6.11,0.28-11.15,0.19-11.58C46.32,26.18,46.03,26.03,45.64,26.06z M36.31,54.34
			c-0.18,0.16-0.46,0.14-0.62-0.04c-0.16-0.18-0.14-0.46,0.04-0.62c0.18-0.16,0.46-0.14,0.62,0.04
			C36.51,53.9,36.49,54.18,36.31,54.34z M40.38,50.16c-0.12,0.21-0.39,0.28-0.6,0.15c-0.21-0.12-0.28-0.39-0.15-0.6
			c0.12-0.21,0.39-0.28,0.6-0.15C40.44,49.69,40.51,49.96,40.38,50.16z M43.02,46c-0.12,0.21-0.38,0.29-0.59,0.18
			c-0.21-0.12-0.29-0.38-0.18-0.59c0.12-0.21,0.38-0.29,0.59-0.18C43.06,45.52,43.13,45.79,43.02,46z M45.07,40.89
			c-0.08,0.23-0.33,0.35-0.56,0.27c-0.23-0.08-0.35-0.33-0.27-0.56c0.08-0.23,0.33-0.35,0.56-0.27
			C45.03,40.41,45.15,40.66,45.07,40.89z M45.74,35.9c-0.24-0.05-0.39-0.28-0.34-0.52c0.05-0.24,0.28-0.39,0.52-0.34
			s0.39,0.28,0.34,0.52S45.98,35.94,45.74,35.9z M46.17,31.07c-0.24-0.05-0.39-0.28-0.34-0.52c0.05-0.24,0.28-0.39,0.52-0.34
			c0.24,0.05,0.39,0.28,0.34,0.52C46.64,30.96,46.41,31.12,46.17,31.07z"/>
		<path class="st9" d="M42.05,20.94c0.01,0.06,0.03,0.13,0.04,0.19l0.21-0.06c-0.01-0.06-0.03-0.13-0.04-0.19L42.05,20.94z"/>
		<path class="st9" d="M14.88,15.24c-0.04,0.04-0.08,0.1-0.12,0.15l0.17,0.13c0.04-0.05,0.08-0.11,0.12-0.15L14.88,15.24z"/>
	</g>
</g>
</svg>
